HIERARCHY
ROOT pelvis
{
  OFFSET 0 100 0
  CHANNELS 6 Xposition Yposition Zposition Zrotation Xrotation Yrotation
  JOINT pelvis_right_femur
  {
    OFFSET -10.78128 -3.44521 -0.5502486
    CHANNELS 3 Zrotation Xrotation Yrotation
    JOINT right_femur_tibia
    {
      OFFSET -0.8047443 -44.0398 -0.1307829
      CHANNELS 3 Zrotation Xrotation Yrotation
      JOINT right_tibia_foot
      {
        OFFSET 3.006224 -47.83518 -5
        CHANNELS 3 Zrotation Xrotation Yrotation
        End Site
        {
          OFFSET 0 -5 15
        }
      }
    }
  }
  JOINT pelvis_left_femur
  {
    OFFSET 10.78128 -3.44521 -0.5502486
    CHANNELS 3 Zrotation Xrotation Yrotation
    JOINT left_femur_tibia
    {
      OFFSET 0.8047443 -44.0398 -0.1307829
      CHANNELS 3 Zrotation Xrotation Yrotation
      JOINT left_tibia_foot
      {
        OFFSET -4.370144 -48.10324 -4.275266
        CHANNELS 3 Zrotation Xrotation Yrotation
        End Site
        {
          OFFSET 0 -5 15
        }
      }
    }
  }
  JOINT pelvis_spine1
  {
    OFFSET 0 6.468898 -3.129235
    CHANNELS 3 Zrotation Xrotation Yrotation
    JOINT spine1
    {
      OFFSET 0 23.15396 4.99043
      CHANNELS 3 Zrotation Xrotation Yrotation
      JOINT spine2
      {
        OFFSET 0 20.79997 -5.064912
        CHANNELS 3 Zrotation Xrotation Yrotation
        JOINT neck
        {
          OFFSET 0 14.38658 9.616178
          CHANNELS 3 Zrotation Xrotation Yrotation
          End Site
          {
            OFFSET 0 20 0
          }
        }
      }
      JOINT right_manubrium
      {
        OFFSET -5.722621 16.35077 3.967754
        CHANNELS 3 Zrotation Xrotation Yrotation
        JOINT right_clavicle
        {
          OFFSET -13.16364 1.694482 -4.693211
          CHANNELS 3 Zrotation Xrotation Yrotation
          JOINT right_humerus
          {
            OFFSET -28.5034 -0.3100689 -2.792744
            CHANNELS 3 Zrotation Xrotation Yrotation
            JOINT right_radius
            {
              OFFSET -25.15693 0.02248979 -1.271978
              CHANNELS 3 Zrotation Xrotation Yrotation
              End Site
              {
                OFFSET -15 0 0
              }
            }
          }
        }
      }
      JOINT left_manubrium
      {
        OFFSET 5.722621 16.35077 3.967754
        CHANNELS 3 Zrotation Xrotation Yrotation
        JOINT left_clavicle
        {
          OFFSET 13.16364 1.694482 -4.693211
          CHANNELS 3 Zrotation Xrotation Yrotation
          JOINT left_humerus
          {
            OFFSET 29.39168 -1.063119 -2.237045
            CHANNELS 3 Zrotation Xrotation Yrotation
            JOINT left_radius
            {
              OFFSET 24.59957 -0.9528479 0.9047498
              CHANNELS 3 Zrotation Xrotation Yrotation
              End Site
              {
                OFFSET 15 -0 -0
              }
            }
          }
        }
      }
    }
  }
}
MOTION
Frames: 11
Frame Time: 0.0416666666667
0 103.5113 0 2.384412 -0.7083788 0.04743457 3.303781 -16.39815 10.6302 -0 37.93246 -0 -3.008316 -17.92424 -2.50839 -8.786379 10.03998 -22.54945 -0 4.950604 -0 20.9608 -8.71292 29.29396 -2.785452 -2.159479 4.462208 2.814382 10.17982 -7.510202 1.676845 21.34265 6.662008 2.89615 -25.74918 10.07003 5.839194 -18.82697 11.40308 86.84752 36.80722 -19.16677 -0 0 13.77472 -6.89603 8.755116 4.387332 5.920581 -20.11609 -1.56475 -91.0508 22.1251 18.73007 0 0 -16.69841 14.15237 13.44347 -2.570453
0.488028 103.7916 1.623398 1.879105 0.2823102 -0.007295216 4.465049 -18.95691 11.2204 -0 37.18256 -0 -3.332474 -17.27012 -2.256045 -8.683778 10.0656 -22.75675 -0 5.399192 -0 21.28256 -9.342396 29.97002 -2.869613 -2.087029 4.364127 3.026535 10.12114 -7.641535 1.674167 21.27779 6.735922 2.813663 -26.03095 10.24511 5.804342 -18.84599 11.46204 86.98955 37.09376 -19.33657 -0 0 13.54978 -6.29228 8.62328 4.333415 5.803803 -20.06491 -1.607374 -90.57346 22.11095 18.19845 0 0 -17.84146 14.50282 12.98517 -2.927143
0.8738165 103.7401 3.704749 1.045409 0.6713021 -0.1091987 4.276612 -22.5224 7.987225 -0 31.13272 -0 -5.155288 -12.9208 -1.757333 -7.829157 10.7805 -21.28417 -0 5.409017 -0 16.10363 -14.07875 27.58137 -2.835636 -1.906984 4.243811 3.082446 10.14127 -7.634217 1.618346 21.26244 6.840226 2.837784 -26.00691 10.25722 5.764735 -18.69358 11.5397 87.18998 37.42338 -19.45721 -0 0 13.02131 -6.349568 8.664205 4.578898 5.723607 -20.05287 -1.78254 -89.97974 21.90798 17.63394 0 0 -18.83744 14.6454 12.36728 -3.087479
1.184733 103.7362 5.818044 0.5503535 1.764354 -0.2244657 5.215715 -24.75724 8.761444 -0 29.96759 -0 -5.255392 -12.63321 -1.95317 -7.607898 10.90103 -21.44299 -0 5.886035 -0 15.04787 -15.55528 27.71805 -2.806061 -1.798627 4.138064 3.229172 10.10357 -7.698798 1.57689 21.20864 6.9339 2.801066 -26.15454 10.3461 5.714192 -18.6042 11.60586 87.37806 37.69746 -19.67499 -0 0 12.57873 -6.094619 8.634675 4.70951 5.639844 -20.0497 -1.888644 -89.49368 21.88205 17.19039 0 0 -20.00469 14.76752 11.82397 -3.141069
1.450867 103.6869 8.153884 0.04611831 2.723424 -0.2856132 6.34262 -27.91804 8.998429 -0 27.76671 -0 -5.521019 -11.07884 -1.646504 -7.362572 11.15679 -21.11459 -0 6.550666 -0 14.48803 -16.75381 27.45884 -2.753467 -1.74187 4.045771 3.444866 10.01761 -7.802203 1.548638 21.13056 7.005411 2.710304 -26.44917 10.48734 5.661751 -18.54634 11.66281 87.53672 37.89915 -19.95466 -0 0 12.19114 -5.615513 8.560271 4.77175 5.532593 -20.03162 -1.942884 -89.15588 22.05217 16.92881 0 0 -21.18895 14.79744 11.36283 -3.002648
1.678138 103.5569 10.81387 -0.3787474 3.475792 -0.2441303 7.244258 -30.83783 8.791888 -0 25.07203 -0 -5.878282 -9.170297 -1.241211 -7.089972 11.58423 -20.54769 -0 7.34739 -0 13.48114 -18.01715 26.69853 -2.651508 -1.643028 3.946456 3.55264 9.989916 -7.835324 1.493242 21.08104 7.087856 2.699039 -26.52989 10.5111 5.612183 -18.40035 11.72516 87.72862 38.06203 -20.20752 -0 0 11.68157 -5.583335 8.595852 4.968933 5.475882 -20.06546 -2.070338 -88.78961 22.05393 16.65495 0 0 -22.13112 14.71757 10.89121 -2.799908
1.869982 103.3252 13.93645 -0.7219685 4.013614 -0.02410056 7.864117 -33.44987 7.972733 -0 21.79639 -0 -6.386925 -6.876783 -0.6874472 -6.792746 12.27443 -19.66823 -0 8.451961 -0 11.91208 -19.31716 25.28208 -2.531588 -1.532166 3.842266 3.612129 9.989924 -7.848174 1.420346 21.0359 7.185264 2.732649 -26.501 10.47562 5.554853 -18.21716 11.79113 87.95568 38.20066 -20.47459 -0 0 11.10482 -5.783171 8.68646 5.227725 5.461617 -20.15119 -2.23611 -88.3803 21.94058 16.33919 0 0 -23.0304 14.59747 10.39925 -2.587459
2.02305 102.986 17.68731 -0.9911151 4.30629 0.4626408 8.007705 -35.38504 6.373414 -0 17.89036 -0 -6.995451 -4.362153 -0.1786582 -6.414185 13.33967 -18.33958 -0 10.10071 -0 9.117827 -20.7723 22.78571 -2.421842 -1.431625 3.745998 3.62961 10.01014 -7.852732 1.340588 20.99299 7.292669 2.800456 -26.38712 10.40401 5.489891 -18.03629 11.85203 88.19702 38.31465 -20.73475 -0 0 10.54117 -6.138144 8.805853 5.500176 5.497347 -20.2855 -2.411209 -87.9514 21.72242 15.98532 0 0 -23.87802 14.4909 9.930065 -2.43335
2.130828 102.5949 22.23403 -1.219425 4.332447 1.276611 7.652701 -36.02179 4.235739 -0 13.851 -0 -7.474519 -2.047932 -0.08834406 -5.883116 14.79778 -16.4955 -0 12.73227 -0 4.650571 -22.02931 18.93298 -2.327535 -1.346541 3.658751 3.612549 10.04635 -7.853548 1.257938 20.95124 7.407094 2.893705 -26.20608 10.3081 5.418844 -17.86548 11.90637 88.44925 38.40517 -20.98992 -0 0 10.00245 -6.606076 8.944353 5.773542 5.57943 -20.46269 -2.587406 -87.50926 21.42169 15.59528 0 0 -24.69309 14.40699 9.491368 -2.341393
2.193693 102.328 27.66621 -1.520015 4.053953 2.331551 7.183496 -34.65017 2.516232 -0 11.21592 -0 -7.483413 -0.5574893 -0.8395581 -5.09764 16.32173 -14.31595 -0 17.00922 -0 -1.030094 -21.91224 14.14676 -2.247351 -1.269797 3.583343 3.547172 10.10971 -7.839395 1.179256 20.92485 7.506674 3.007928 -25.94243 10.17305 5.361909 -17.69306 11.95246 88.69034 38.43848 -21.21621 -0 0 9.5124 -7.204183 9.111159 6.04497 5.689649 -20.65676 -2.762751 -87.10539 21.07653 15.21188 0 0 -25.30535 14.30545 9.138353 -2.269641
2.246451 102.4759 33.82378 -2.082298 3.533509 3.217598 7.310025 -31.37424 2.52823 -0 12.06926 -0 -7.047889 -0.3047914 -2.151128 -4.048238 16.68159 -12.46888 -0 23.56609 -0 -5.436863 -18.77945 10.33309 -2.160455 -1.167638 3.51389 3.405912 10.22665 -7.78643 1.108564 20.9401 7.554686 3.143968 -25.54145 9.948695 5.355427 -17.46523 11.99571 88.89328 38.34125 -21.38592 -0 0 9.05488 -8.037303 9.347256 6.350793 5.785058 -20.82252 -2.958479 -86.80531 20.74088 14.89498 0 0 -25.40293 14.06113 8.932028 -2.080997
